
		<svg width="3090.441838189018" height="3090.4420711393086" xmlns="http://www.w3.org/2000/svg" xmlns:xlink="http://www.w3.org/1999/xlink" version="1.1">
			<g transform="scale(4.522103556965421) translate(10, 10)">
				<g id="SvgjsG1008" fill="#ffffff" transform="translate(0, 0) scale(3.3760019095713303)" rel="inversefill" name="filled_container" xmlns:name="filledContainer_inversefill"><g>  <path d="M103.138,0.122c-0.303-0.016-0.608-0.023-0.912-0.035c-0.501-0.02-1.002-0.043-1.505-0.056C99.901,0.011,99.079,0,98.254,0    c-0.824,0-1.646,0.011-2.465,0.031c-0.534,0.013-1.064,0.038-1.595,0.059c-0.272,0.011-0.544,0.018-0.816,0.031    C41.456,2.672,0,45.711,0,98.254s41.456,95.582,93.377,98.132c0.271,0.014,0.544,0.02,0.816,0.031    c0.531,0.021,1.062,0.046,1.595,0.059c0.819,0.02,1.641,0.031,2.465,0.031c0.825,0,1.647-0.011,2.468-0.031    c0.503-0.013,1.004-0.036,1.505-0.056c0.304-0.013,0.608-0.02,0.912-0.035c51.917-2.554,93.369-45.592,93.369-98.132    C196.507,45.714,155.055,2.676,103.138,0.122z M164.759,167.035c-16.109,17.204-37.86,27.165-61.674,28.352    c-0.293,0.015-0.586,0.022-0.879,0.034c-0.503,0.02-1.006,0.043-1.511,0.056c-0.812,0.02-1.626,0.031-2.441,0.031    c-0.815,0-1.629-0.011-2.439-0.031c-0.538-0.014-1.073-0.037-1.608-0.06c-0.258-0.01-0.517-0.017-0.775-0.029    c-23.798-1.186-45.508-11.148-61.558-28.353c-16.844-18.057-26.12-42.484-26.12-68.781s9.276-50.725,26.12-68.781    C47.923,12.268,69.634,2.306,93.432,1.12c0.258-0.013,0.517-0.019,0.775-0.029c0.536-0.022,1.071-0.046,1.608-0.06    C96.625,1.011,97.438,1,98.254,1c0.816,0,1.63,0.011,2.441,0.031c0.505,0.012,1.007,0.035,1.511,0.056    c0.293,0.012,0.586,0.019,0.879,0.034c23.814,1.187,45.565,11.148,61.674,28.353c16.924,18.075,26.245,42.502,26.245,68.781    C191.004,124.533,181.684,148.96,164.759,167.035z"/></g></g><defs id="SvgjsDefs1002"/><g id="SvgjsG1009" rel="mainfill" name="main_text" xmlns:name="mainText_mainfill" fill="#1c6d91" transform="translate(75.92100811004639, 370.62125016023185)"><path fill="#1c6d91" d="M11.319 11.121000000000006 l-1.353 -3.036 l3.96 0 l11.847 25.047 l-4.026 0 l-1.617 -3.597 l-7.491 0 c-4.488 0 -6.897 1.419 -7.458 2.442 l-0.627 1.155 l-3.894 0 z M13.959 25.905000000000005 l4.554 0 l-5.379 -10.395 l-5.445 11.781 c0.891 -0.759 2.904 -1.386 6.27 -1.386 z M39.171 19.437000000000005 l-3.399 0 l0 10.263 l3.399 0 c3.3 0 5.181 -1.881 5.181 -5.181 c0 -3.333 -1.881 -5.082 -5.181 -5.082 z M30.096000000000004 19.437000000000005 l-1.518 -3.399 l10.593 0 c5.148 0 8.646 2.97 8.646 8.415 c0 5.313 -3.432 8.679 -8.646 8.679 l-6.963 0 l0 -13.695 l-2.112 0 z M70.818 16.038000000000004 l-7.557 17.094 l-4.389 0 l-7.425 -17.094 l3.828 0 l5.775 13.629 l5.907 -13.629 l3.861 0 z M85.932 27.456000000000003 l0.462 0 l-3.333 -6.336 l-4.059 7.821 c1.089 -0.561 3.399 -1.485 6.93 -1.485 z M81.31200000000001 17.787000000000006 l-1.122 -2.145 l3.663 0 l9.24 17.49 l-3.729 0 l-1.353 -2.574 l-2.046 0 c-4.224 0 -8.613 1.65 -9.174 2.376 l-0.099 0.198 l-3.564 0 z M96.22800000000001 16.038000000000004 l4.257 0 l10.329 11.88 l0 -11.88 l3.399 0 l0 17.094 l-3.399 0 l-9.504 -11.121 l0 11.121 l-3.399 0 l0 -14.553 z M135.597 28.380000000000006 l1.98 2.838 c-1.881 1.617 -4.422 2.442 -7.029 2.442 c-5.181 0 -10.065 -3.366 -10.065 -9.141 c0 -5.808 4.983 -9.042 10.098 -9.042 c2.508 0 4.983 0.726 6.864 2.145 l-2.277 2.64 c-1.287 -0.891 -2.97 -1.353 -4.587 -1.353 c-3.3 0 -6.501 1.815 -6.501 5.676 s3.267 5.643 6.534 5.643 c1.782 0 3.663 -0.66 4.983 -1.848 z M146.883 26.994000000000007 l0 2.706 l10.725 0 l0 3.432 l-14.091 0 l0 -17.094 l13.464 0 l0 3.399 l-10.098 0 l0 4.158 c1.485 -0.858 3.366 -0.99 5.346 -0.99 l2.508 0 l0 3.399 l-2.508 0 c-3.135 0 -3.861 0.198 -5.346 0.99 z M172.491 19.437000000000005 l-3.399 0 l0 10.263 l3.399 0 c3.3 0 5.181 -1.881 5.181 -5.181 c0 -3.333 -1.881 -5.082 -5.181 -5.082 z M163.41600000000003 19.437000000000005 l-1.518 -3.399 l10.593 0 c5.148 0 8.646 2.97 8.646 8.415 c0 5.313 -3.432 8.679 -8.646 8.679 l-6.963 0 l0 -13.695 l-2.112 0 z  M217.10700000000003 11.682000000000006 l-2.31 2.706 c-1.782 -1.848 -4.389 -2.97 -7.194 -2.97 c-5.478 0 -9.702 3.927 -9.702 9.471 c0 5.313 4.587 9.207 9.735 9.207 c3.201 0 6.039 -1.485 7.821 -3.861 l2.211 3.003 c-2.475 2.772 -6.105 4.455 -10.065 4.455 c-7.458 0 -13.233 -5.808 -13.233 -13.233 c0 -7.26 6.204 -12.672 13.266 -12.672 c3.696 0 7.062 1.485 9.471 3.894 z M238.26000000000005 24.453000000000003 c0 -3.828 -3.3 -5.478 -6.534 -5.478 c-3.3 0 -6.534 1.749 -6.534 5.61 s3.3 5.61 6.567 5.61 c3.234 0 6.501 -2.046 6.501 -5.742 z M241.82400000000004 24.420000000000005 c0 5.808 -4.95 9.24 -10.131 9.24 s-10.065 -3.366 -10.065 -9.141 c0 -5.808 4.983 -9.042 10.098 -9.042 c5.148 0 10.098 3.003 10.098 8.943 z M245.94900000000004 16.038000000000004 l4.257 0 l10.329 11.88 l0 -11.88 l3.399 0 l0 17.094 l-3.399 0 l-9.504 -11.121 l0 11.121 l-3.399 0 l0 -14.553 z M285.25200000000007 19.437000000000005 l-6.435 0 l0 13.695 l-3.399 0 l0 -13.695 l-6.204 0 l0 -3.399 l16.038 0 l0 3.399 z M303.0060000000001 26.169000000000004 l1.056 1.782 c0.825 1.386 2.013 1.518 2.871 1.518 l1.188 0 l0 3.663 l-1.485 0 c-1.782 0 -3.399 -0.132 -4.983 -2.706 l-2.64 -4.29 l-0.231 0 c-2.673 0 -3.399 0.264 -4.785 0.99 l0 6.006 l-3.465 0 l0 -17.094 l11.022 0 c3.135 0 5.379 2.178 5.379 5.148 c0 2.607 -1.452 4.224 -3.927 4.983 z M298.78200000000004 22.737000000000005 l2.772 0 c1.023 0 1.914 -0.561 1.914 -1.65 c0 -1.518 -1.32 -1.65 -2.508 -1.65 l-6.963 0 l0 4.29 c1.32 -0.726 3.003 -0.99 4.785 -0.99 z M329.7030000000001 24.453000000000003 c0 -3.828 -3.3 -5.478 -6.534 -5.478 c-3.3 0 -6.534 1.749 -6.534 5.61 s3.3 5.61 6.567 5.61 c3.234 0 6.501 -2.046 6.501 -5.742 z M333.26700000000005 24.420000000000005 c0 5.808 -4.95 9.24 -10.131 9.24 s-10.065 -3.366 -10.065 -9.141 c0 -5.808 4.983 -9.042 10.098 -9.042 c5.148 0 10.098 3.003 10.098 8.943 z M352.1430000000001 33.132000000000005 l-12.606 0 l0 -17.094 l3.531 0 l0 13.662 l9.075 0 l0 3.432 z  M384.84600000000006 25.641000000000005 c0 4.95 -4.752 8.052 -10.989 8.052 c-3.762 0 -7.656 -1.848 -10.131 -5.049 l2.574 -2.409 c1.287 1.551 3.696 3.861 7.557 3.861 c3.63 0 7.293 -1.386 7.293 -4.455 c0 -3.762 -3.729 -3.762 -7.293 -3.762 c-5.874 0 -9.075 -2.178 -9.075 -6.369 c0 -3.993 3.795 -7.722 9.075 -7.722 c3.729 0 6.963 1.056 9.9 3.894 l-2.244 2.64 c-2.64 -2.145 -4.521 -2.904 -7.656 -2.904 c-2.772 0 -5.082 1.914 -5.082 4.059 c0 1.485 1.056 2.838 5.247 2.838 c8.613 0 10.824 2.673 10.824 7.326 z M405.2730000000001 16.038000000000004 l-7.062 10.197 l0 6.897 l-3.366 0 l0 -6.897 l-7.194 -10.197 l4.29 0 l4.554 6.732 l4.686 -6.732 l4.092 0 z M423.4890000000001 17.622000000000007 l-2.277 2.64 c-1.32 -1.089 -3.102 -1.485 -5.082 -1.485 c-1.65 0 -3.465 0.858 -3.465 1.848 c0 1.023 0.396 1.716 3.729 1.716 c7.293 0 8.415 2.475 8.415 5.247 c0 4.092 -3.762 6.072 -8.646 6.072 c-2.97 0 -5.874 -1.419 -7.755 -3.63 l2.442 -2.475 c1.023 1.089 2.277 2.805 5.313 2.805 c3.102 0 5.28 -0.99 5.28 -2.772 c0 -1.551 -1.716 -1.881 -5.28 -1.881 c-4.092 0 -7.062 -1.353 -7.062 -5.082 c0 -3.102 3.267 -5.148 7.062 -5.148 c2.475 0 4.818 0.429 7.326 2.145 z M444.1470000000001 19.437000000000005 l-6.435 0 l0 13.695 l-3.399 0 l0 -13.695 l-6.204 0 l0 -3.399 l16.038 0 l0 3.399 z M452.7930000000001 26.994000000000007 l0 2.706 l10.725 0 l0 3.432 l-14.091 0 l0 -17.094 l13.464 0 l0 3.399 l-10.098 0 l0 4.158 c1.485 -0.858 3.366 -0.99 5.346 -0.99 l2.508 0 l0 3.399 l-2.508 0 c-3.135 0 -3.861 0.198 -5.346 0.99 z M490.7100000000001 16.038000000000004 l-1.683 2.739 l0 14.355 l-3.729 0 l0 -9.999 l-6.039 8.052 l-6.039 -8.052 l0 9.999 l-3.729 0 l0 -14.355 l-1.683 -2.739 l4.158 0 l7.293 9.669 l7.293 -9.669 l4.158 0 z M509.58600000000007 17.622000000000007 l-2.277 2.64 c-1.32 -1.089 -3.102 -1.485 -5.082 -1.485 c-1.65 0 -3.465 0.858 -3.465 1.848 c0 1.023 0.396 1.716 3.729 1.716 c7.293 0 8.415 2.475 8.415 5.247 c0 4.092 -3.762 6.072 -8.646 6.072 c-2.97 0 -5.874 -1.419 -7.755 -3.63 l2.442 -2.475 c1.023 1.089 2.277 2.805 5.313 2.805 c3.102 0 5.28 -0.99 5.28 -2.772 c0 -1.551 -1.716 -1.881 -5.28 -1.881 c-4.092 0 -7.062 -1.353 -7.062 -5.082 c0 -3.102 3.267 -5.148 7.062 -5.148 c2.475 0 4.818 0.429 7.326 2.145 z" style="fill: #1c6d91;"/></g><g id="SvgjsG1010" rel="mainfill" name="slogan_text" xmlns:name="sloganText_mainfill" fill="#1c6d91" transform="translate(254.17224965058267, 396.7621736602929)"><path fill="#1c6d91" d="M3.4473 23.808595 q-0.48828125 0.1171875 -1.162109375 0.029296875 q-0.224609375 -0.029296875 -0.4150390625 -0.13671875 t-0.40527 -0.18555 q-0.380859375 -0.13671875 -0.6591796875 -0.3857421875 t-0.46387 -0.62012 q-0.17578125 -0.37109375 -0.2587890625 -0.751953125 t-0.083008 -0.76172 q-0.009765625 -0.068359375 -0.0048828125 -0.1611328125 t0.0048828 -0.21973 q0.009765625 -0.17578125 0.0244140625 -0.361328125 t0.043945 -0.37109 q0.0390625 -0.3515625 0.17578125 -0.64453125 q0.126953125 -0.283203125 0.322265625 -0.5419921875 t0.48828 -0.4834 q0.810546875 -0.625 1.904296875 -0.654296875 q0.224609375 -0.009765625 0.4833984375 0.107421875 t0.4541 0.23438 q0.048828125 0.0390625 0.37109375 0.17578125 q0.205078125 0.107421875 0.3515625 0.234375 q0.185546875 0.17578125 0.3515625 0.46875 q0.009765625 0.01953125 0.048828125 0.087890625 t0.11719 0.19531 l0.0097656 0.0097656 l0.0097656 0.0097656 q0.087890625 0.087890625 0.15625 0.2587890625 t0.13672 0.41504 q0.146484375 0.48828125 0.17578125 0.72265625 q0.107421875 1.19140625 -0.5078125 2.08984375 q-0.1171875 0.166015625 -0.2392578125 0.33203125 t-0.20996 0.33203 l-0.078125 0.15625 l0.11719 0.12695 q0.05859375 0.05859375 0.1904296875 0.126953125 t0.35645 0.11719 q0.13671875 0.048828125 0.1953125 0.087890625 q0.0390625 0.0390625 0.0390625 0.13671875 t-0.063477 0.15625 t-0.14648 0.078125 t-0.18066 0.014648 t-0.17578 -0.024414 q-0.17578125 -0.048828125 -0.361328125 -0.1513671875 t-0.38086 -0.24902 q-0.166015625 -0.13671875 -0.33203125 -0.1171875 q-0.029296875 0 -0.107421875 0.01953125 t-0.21484 0.068359 z M2.9199 21.884775 q0.68359375 -0.068359375 0.810546875 0.263671875 q0.126953125 0.3125 0.44921875 0.33203125 q0.224609375 0 0.390625 -0.3125 q0.078125 -0.146484375 0.1416015625 -0.3173828125 t0.13184 -0.34668 q0.390625 -1.044921875 -0.185546875 -2.109375 q-0.068359375 -0.1171875 -0.107421875 -0.185546875 t-0.048828 -0.087891 q-0.8203125 -1.2890625 -2.34375 -0.78125 l-0.0097656 0 l-0.0097656 0.0097656 q-0.09765625 0.0390625 -0.2001953125 0.1025390625 t-0.22949 0.1416 q-0.205078125 0.146484375 -0.4296875 0.302734375 t-0.37109 0.35156 q-0.263671875 0.37109375 -0.302734375 1.064453125 q-0.009765625 0.1171875 -0.009765625 0.3076171875 t0.019531 0.4541 q0.029296875 0.517578125 0.1171875 0.72265625 l0 0.0097656 l0.0097656 0.0097656 q0.80078125 1.650390625 2.51953125 1.38671875 q0.244140625 -0.0390625 0.283203125 -0.234375 q0.009765625 -0.15625 -0.146484375 -0.302734375 q-0.029296875 -0.009765625 -0.1171875 -0.078125 q-0.166015625 -0.126953125 -0.380859375 -0.17578125 q-0.1953125 -0.029296875 -0.205078125 -0.0390625 q-0.068359375 -0.029296875 -0.107421875 -0.17578125 q-0.0390625 -0.09765625 0.01953125 -0.17578125 q0.078125 -0.107421875 0.3125 -0.13671875 z M12.724621875 17.724575 q0.29296875 -0.009765625 0.29296875 0.29296875 q0 0.41015625 -0.0048828125 0.80078125 t-0.053711 0.80078 q-0.048828125 0.380859375 -0.0048828125 0.751953125 t0.043945 0.74219 l0 0.068359 l-0.039063 0.66406 q-0.01953125 0.21484375 -0.048828125 0.380859375 t-0.048828 0.27344 l-0.019531 0.039063 l-0.019531 0.068359 l0 0.0097656 q-0.029296875 0.1171875 -0.107421875 0.2392578125 t-0.1709 0.23438 t-0.2002 0.20996 t-0.19531 0.17578 q-0.166015625 0.146484375 -0.361328125 0.234375 t-0.41016 0.12695 t-0.43457 0.053711 t-0.4248 0.014648 q-0.361328125 0 -0.703125 -0.0830078125 t-0.66406 -0.27832 q-0.01953125 -0.01953125 -0.01953125 -0.029296875 q-0.029296875 -0.009765625 -0.048828125 -0.029296875 l-0.039063 -0.039063 q-0.029296875 -0.01953125 -0.048828125 -0.0341796875 t-0.039063 -0.043945 q-0.48828125 -0.517578125 -0.625 -1.2890625 q-0.05859375 -0.380859375 -0.078125 -0.7470703125 t0 -0.71777 q0.009765625 -0.087890625 0.01953125 -0.1708984375 t0.019531 -0.1709 q0.009765625 -0.1171875 0.0048828125 -0.224609375 t-0.014648 -0.20508 q-0.05859375 -0.771484375 -0.029296875 -1.826171875 q0.009765625 -0.205078125 0.25390625 -0.29296875 q0.1953125 -0.05859375 0.33203125 0.0390625 q0.078125 0.078125 0.078125 0.17578125 q0.009765625 0.13671875 0.0048828125 0.3515625 t-0.014648 0.49805 q0 0.244140625 -0.01953125 0.48828125 t-0.019531 0.47852 q0 0.29296875 -0.01953125 0.5712890625 t-0.019531 0.56152 q0 0.546875 0.17578125 1.23046875 q0.01953125 0.087890625 0.0439453125 0.1611328125 t0.043945 0.15137 q0.146484375 0.458984375 0.44921875 0.634765625 q0.224609375 0.13671875 0.83984375 0.17578125 q0.078125 0.009765625 0.15625 0.0244140625 t0.16602 0.014648 l0.0097656 0 l0.0097656 0 q0.46875 0 0.8203125 -0.166015625 t0.5957 -0.57617 q0.1953125 -0.33203125 0.1953125 -1.015625 l0 -0.21973 t0.0097656 -0.15137 q0.09765625 -0.869140625 -0.01953125 -1.81640625 q-0.01953125 -0.126953125 0.029296875 -0.46875 q0.01953125 -0.13671875 0.029296875 -0.244140625 t0.0097656 -0.18555 q0 -0.419921875 0.05859375 -0.56640625 q0.078125 -0.146484375 0.2734375 -0.146484375 z M21.2011625 23.515625 q0 0.244140625 -0.205078125 0.3125 q-0.17578125 0.078125 -0.3125 -0.1171875 q-0.068359375 -0.09765625 -0.1123046875 -0.17578125 t-0.073242 -0.14648 q-0.13671875 -0.29296875 -0.244140625 -0.5126953125 t-0.21484 -0.35645 q-0.234375 -0.322265625 -0.517578125 -0.41015625 q-0.244140625 -0.078125 -0.78125 -0.01953125 q-0.3125 0.0390625 -0.5908203125 0.048828125 t-0.53223 -0.0097656 q-0.56640625 -0.0390625 -0.83984375 0.361328125 l-0.019531 0.029297 l-0.0097656 0.019531 q-0.09765625 0.1953125 -0.1611328125 0.3857421875 t-0.15137 0.36621 l-0.20508 0.32227 q-0.13671875 0.205078125 -0.283203125 0.224609375 q-0.068359375 0.029296875 -0.1953125 -0.078125 q-0.05859375 -0.05859375 -0.0732421875 -0.1416015625 t0 -0.1709 t0.048828 -0.18066 t0.063477 -0.16113 l0.23438 -0.48828 q0.341796875 -0.703125 0.6396484375 -1.42578125 t0.62988 -1.4551 q0.05859375 -0.126953125 0.1025390625 -0.2392578125 t0.092773 -0.21973 q0.107421875 -0.263671875 0.21484375 -0.5322265625 t0.24414 -0.53223 l0.14648 -0.22461 q0.107421875 -0.17578125 0.205078125 -0.185546875 q0.09765625 -0.01953125 0.25390625 0.166015625 q0.166015625 0.1953125 0.3173828125 0.458984375 t0.25879 0.49805 q0.341796875 0.72265625 0.6396484375 1.450195313 t0.63965 1.4307 q0.107421875 0.21484375 0.2099609375 0.4345703125 t0.21973 0.4248 q0.05859375 0.146484375 0.1220703125 0.283203125 t0.12207 0.27344 q0.048828125 0.107421875 0.078125 0.17578125 t0.039063 0.11719 z M19.2675625 20.781275 q-0.09765625 -0.234375 -0.1904296875 -0.4833984375 t-0.21973 -0.4834 q-0.234375 -0.44921875 -0.517578125 -0.4296875 q-0.107421875 0 -0.1904296875 0.05859375 t-0.1416 0.1416 t-0.10742 0.18066 t-0.078125 0.18555 q-0.107421875 0.29296875 -0.205078125 0.60546875 t-0.18555 0.60547 q-0.068359375 0.21484375 0.01953125 0.322265625 q0.05859375 0.09765625 0.302734375 0.1171875 q0.21484375 0.009765625 0.380859375 0.0146484375 t0.27344 -0.0048828 q0.21484375 0 0.56640625 -0.05859375 q0.361328125 -0.05859375 0.4296875 -0.322265625 q0.029296875 -0.15625 -0.0390625 -0.263671875 q-0.01953125 -0.0390625 -0.0537109375 -0.0927734375 t-0.043945 -0.092773 z M27.4414125 23.330075 q0.1171875 0.078125 0.1171875 0.21484375 q0.009765625 0.322265625 -0.380859375 0.322265625 q-0.703125 0 -1.40625 -0.01953125 t-1.4063 0.029297 q-0.556640625 0.029296875 -0.673828125 -0.302734375 q-0.05859375 -0.146484375 -0.05859375 -0.458984375 q0.009765625 -0.166015625 0.0146484375 -0.2880859375 t0.0048828 -0.20996 q0.009765625 -0.21484375 0.0244140625 -0.4443359375 t0.0048828 -0.4541 q-0.01953125 -0.46875 -0.0390625 -0.9130859375 t-0.0097656 -0.91309 q0.009765625 -0.224609375 0.01953125 -0.4443359375 t0.0097656 -0.4541 q0.009765625 -0.283203125 0.0048828125 -0.5224609375 t-0.024414 -0.43457 q-0.01953125 -0.263671875 0.244140625 -0.3125 q0.380859375 -0.078125 0.41015625 0.44921875 q0.01953125 0.224609375 0.029296875 0.4345703125 t0.029297 0.40527 l0 0.25391 l-0.039063 0.37109 q-0.01953125 0.15625 -0.0341796875 0.3125 t-0.024414 0.30273 q-0.01953125 0.37109375 -0.01953125 0.6494140625 t0.0097656 0.46387 q0.01953125 0.234375 0.0244140625 0.48828125 t-0.014648 0.53711 q-0.01953125 0.4296875 0.1171875 0.56640625 q0.107421875 0.126953125 0.458984375 0.15625 q0.17578125 0.01953125 0.3466796875 0.029296875 t0.34668 0.029297 q0.263671875 0.029296875 0.537109375 0.0048828125 t0.54688 0.014648 q0.17578125 0.01953125 0.4248046875 0.0341796875 t0.40527 0.10254 z M29.980473125 23.837895 q-0.3125 -0.048828125 -0.3125 -0.37109375 q-0.009765625 -0.52734375 -0.009765625 -1.03515625 l0 -1.0352 q0 -0.29296875 0.029296875 -0.5859375 q0.01953125 -0.21484375 0.01953125 -0.400390625 t-0.0097656 -0.3418 q-0.009765625 -0.09765625 -0.01953125 -0.234375 t-0.019531 -0.32227 q0 -0.09765625 0.0048828125 -0.234375 t0.014648 -0.32227 q0.009765625 -0.13671875 0.0146484375 -0.2392578125 t0.0048828 -0.18066 l0 -0.21484 l0 -0.0097656 l0 -0.078125 q-0.029296875 -0.244140625 0.009765625 -0.341796875 q0.029296875 -0.068359375 0.126953125 -0.13671875 q0.380859375 -0.1953125 0.46875 0.244140625 q0.078125 0.33203125 0.0927734375 0.6494140625 t-0.014648 0.62988 l0 0.0097656 q-0.029296875 0.302734375 -0.0146484375 0.60546875 t-0.014648 0.60547 q-0.029296875 0.263671875 -0.048828125 0.458984375 t-0.029297 0.33203 q-0.01953125 0.1953125 -0.01953125 0.4052734375 t0.0097656 0.44434 q0.009765625 0.048828125 0.009765625 0.1123046875 l0 0.15137 l0 0.3125 t0.0097656 0.30273 q0 0.107421875 0.0048828125 0.2001953125 t-0.0048828 0.19043 q0 0.1953125 -0.009765625 0.21484375 q-0.0390625 0.185546875 -0.29296875 0.21484375 z M37.7051125 18.193375 q-0.13671875 0.15625 -0.44921875 0.13671875 l-0.48828 -0.029297 q-0.146484375 -0.009765625 -0.283203125 -0.01953125 t-0.2832 -0.0097656 q-0.29296875 -0.009765625 -0.4296875 0.126953125 q-0.107421875 0.126953125 -0.107421875 0.419921875 q0 0.13671875 0.0146484375 0.2685546875 t0.014648 0.26855 q0.009765625 0.322265625 0.0146484375 0.5615234375 t0.0048828 0.40527 q0 0.498046875 -0.05859375 0.99609375 q-0.029296875 0.234375 0 0.46875 t0.039063 0.45898 q0.009765625 0.25390625 0.0146484375 0.439453125 t0.0048828 0.3125 l0 0.13184 t-0.0097656 0.20996 q-0.01953125 0.263671875 -0.0390625 0.322265625 q-0.126953125 0.21484375 -0.33203125 0.15625 q-0.25390625 -0.048828125 -0.25390625 -0.37109375 q-0.009765625 -0.29296875 0.0146484375 -0.5908203125 t0.043945 -0.59082 q0.029296875 -0.341796875 -0.0048828125 -0.693359375 t-0.03418 -0.70313 q0 -0.322265625 0.0244140625 -0.6494140625 t0.03418 -0.64941 q0 -0.634765625 -0.205078125 -0.8984375 q-0.107421875 -0.13671875 -0.2587890625 -0.2099609375 t-0.33691 -0.092773 t-0.34668 -0.03418 t-0.31738 -0.014648 l-0.29785 0 t-0.27832 -0.058594 q-0.078125 -0.0390625 -0.09765625 -0.185546875 q-0.01953125 -0.107421875 0.029296875 -0.185546875 q0.068359375 -0.1171875 0.341796875 -0.146484375 q0.029296875 -0.009765625 0.107421875 -0.009765625 q0.41015625 -0.009765625 0.7958984375 0.0341796875 t0.7959 0.014648 q0.166015625 -0.009765625 0.3271484375 -0.029296875 t0.33691 -0.019531 l0.64941 0 t0.64941 -0.0097656 q0.166015625 0 0.2880859375 0.009765625 t0.20996 0.048828 q0.302734375 0.205078125 0.15625 0.41015625 z M44.14065 17.773475 q0.41015625 -0.009765625 0.185546875 0.4296875 q-0.048828125 0.09765625 -0.13671875 0.224609375 t-0.21484 0.29297 q-0.283203125 0.37109375 -0.439453125 0.68359375 q-0.146484375 0.29296875 -0.3369140625 0.5859375 t-0.41504 0.5957 l0 0.0097656 q-0.1171875 0.17578125 -0.1708984375 0.3369140625 t-0.073242 0.30762 q-0.01953125 0.17578125 0.0048828125 0.341796875 t0.024414 0.33203 q0 0.234375 -0.0146484375 0.4541015625 t0.014648 0.4541 q0.009765625 0.087890625 0.01953125 0.205078125 t0.019531 0.27344 q0.01953125 0.3125 -0.09765625 0.44921875 q-0.068359375 0.068359375 -0.21484375 0.087890625 q-0.3125 0.029296875 -0.341796875 -0.458984375 q-0.01953125 -0.439453125 0.01953125 -0.8984375 t0.068359 -0.9082 q0.029296875 -0.380859375 -0.126953125 -0.615234375 q-0.078125 -0.107421875 -0.1513671875 -0.244140625 t-0.1709 -0.29297 q-0.107421875 -0.166015625 -0.2099609375 -0.3369140625 t-0.20996 -0.34668 q-0.1171875 -0.185546875 -0.1953125 -0.3271484375 t-0.12695 -0.23926 q-0.078125 -0.13671875 -0.126953125 -0.234375 t-0.087891 -0.14648 t-0.097656 -0.12695 t-0.13672 -0.17578 q-0.244140625 -0.3125 -0.244140625 -0.458984375 q-0.01953125 -0.087890625 0.0390625 -0.185546875 q0.2734375 -0.322265625 0.517578125 0.0390625 q0.205078125 0.29296875 0.361328125 0.615234375 t0.33203 0.625 q0.13671875 0.224609375 0.2392578125 0.3759765625 t0.2002 0.23926 q0.234375 0.263671875 0.498046875 0.205078125 q0.234375 -0.048828125 0.44921875 -0.361328125 q0.087890625 -0.1171875 0.166015625 -0.244140625 t0.16602 -0.25391 q0.078125 -0.09765625 0.13671875 -0.2197265625 t0.1123 -0.24902 t0.1123 -0.25391 t0.13672 -0.24414 q0.21484375 -0.302734375 0.517578125 -0.341796875 z  M56.02538125 23.515625 q0 0.244140625 -0.205078125 0.3125 q-0.17578125 0.078125 -0.3125 -0.1171875 q-0.068359375 -0.09765625 -0.1123046875 -0.17578125 t-0.073242 -0.14648 q-0.13671875 -0.29296875 -0.244140625 -0.5126953125 t-0.21484 -0.35645 q-0.234375 -0.322265625 -0.517578125 -0.41015625 q-0.244140625 -0.078125 -0.78125 -0.01953125 q-0.3125 0.0390625 -0.5908203125 0.048828125 t-0.53223 -0.0097656 q-0.56640625 -0.0390625 -0.83984375 0.361328125 l-0.019531 0.029297 l-0.0097656 0.019531 q-0.09765625 0.1953125 -0.1611328125 0.3857421875 t-0.15137 0.36621 l-0.20508 0.32227 q-0.13671875 0.205078125 -0.283203125 0.224609375 q-0.068359375 0.029296875 -0.1953125 -0.078125 q-0.05859375 -0.05859375 -0.0732421875 -0.1416015625 t0 -0.1709 t0.048828 -0.18066 t0.063477 -0.16113 l0.23438 -0.48828 q0.341796875 -0.703125 0.6396484375 -1.42578125 t0.62988 -1.4551 q0.05859375 -0.126953125 0.1025390625 -0.2392578125 t0.092773 -0.21973 q0.107421875 -0.263671875 0.21484375 -0.5322265625 t0.24414 -0.53223 l0.14648 -0.22461 q0.107421875 -0.17578125 0.205078125 -0.185546875 q0.09765625 -0.01953125 0.25390625 0.166015625 q0.166015625 0.1953125 0.3173828125 0.458984375 t0.25879 0.49805 q0.341796875 0.72265625 0.6396484375 1.450195313 t0.63965 1.4307 q0.107421875 0.21484375 0.2099609375 0.4345703125 t0.21973 0.4248 q0.05859375 0.146484375 0.1220703125 0.283203125 t0.12207 0.27344 q0.048828125 0.107421875 0.078125 0.17578125 t0.039063 0.11719 z M54.09178125 20.781275 q-0.09765625 -0.234375 -0.1904296875 -0.4833984375 t-0.21973 -0.4834 q-0.234375 -0.44921875 -0.517578125 -0.4296875 q-0.107421875 0 -0.1904296875 0.05859375 t-0.1416 0.1416 t-0.10742 0.18066 t-0.078125 0.18555 q-0.107421875 0.29296875 -0.205078125 0.60546875 t-0.18555 0.60547 q-0.068359375 0.21484375 0.01953125 0.322265625 q0.05859375 0.09765625 0.302734375 0.1171875 q0.21484375 0.009765625 0.380859375 0.0146484375 t0.27344 -0.0048828 q0.21484375 0 0.56640625 -0.05859375 q0.361328125 -0.05859375 0.4296875 -0.322265625 q0.029296875 -0.15625 -0.0390625 -0.263671875 q-0.01953125 -0.0390625 -0.0537109375 -0.0927734375 t-0.043945 -0.092773 z M59.01367125 23.632815 q-0.0390625 0.17578125 -0.302734375 0.205078125 q-0.2734375 -0.009765625 -0.2734375 -0.302734375 q0 -0.76171875 -0.0341796875 -1.538085938 t0.043945 -1.5381 l0 -0.0097656 q0 -0.224609375 0.0048828125 -0.439453125 t-0.014648 -0.41992 l-0.078125 -0.74219 q-0.029296875 -0.3125 0.09765625 -0.673828125 q0.09765625 -0.25390625 0.263671875 -0.302734375 q0.13671875 -0.029296875 0.283203125 0.13671875 q0.13671875 0.146484375 0.205078125 0.25390625 q0.126953125 0.185546875 0.2587890625 0.33203125 t0.25879 0.27344 q0.107421875 0.126953125 0.2197265625 0.2197265625 t0.21973 0.20996 q0.09765625 0.09765625 0.21484375 0.2490234375 t0.25391 0.35645 l0.42969 0.66406 q0.048828125 0.068359375 0.1025390625 0.15625 t0.13184 0.20508 l0.0097656 0.0097656 q0.205078125 0.2734375 0.4296875 0.517578125 q0.107421875 0.1171875 0.21484375 0.2197265625 t0.22461 0.20996 q0.107421875 0.126953125 0.25390625 0.078125 q0.224609375 -0.05859375 0.21484375 -0.44921875 q0 -0.09765625 -0.0146484375 -0.205078125 t-0.014648 -0.21484 q-0.009765625 -0.078125 -0.01953125 -0.1513671875 t-0.0097656 -0.16113 q0 -0.0390625 -0.0048828125 -0.087890625 t-0.0048828 -0.10742 q0.0390625 -0.859375 -0.05859375 -1.6015625 q-0.009765625 -0.048828125 -0.009765625 -0.1611328125 t0.019531 -0.28809 q0.009765625 -0.21484375 0.05859375 -0.458984375 q0.029296875 -0.3515625 0.3125 -0.3515625 q0.3125 0 0.3125 0.37109375 q0.009765625 0.302734375 0.0244140625 0.6103515625 t0.014648 0.61035 q0.009765625 0.44921875 -0.01953125 0.8984375 t-0.0097656 0.89844 q0.01953125 0.302734375 0.0146484375 0.595703125 t-0.014648 0.58594 q0 0.166015625 0.0048828125 0.3271484375 t0.0048828 0.30762 l0 0.39063 q-0.009765625 0.05859375 -0.0146484375 0.1171875 t-0.0048828 0.10742 q-0.009765625 0.009765625 -0.009765625 0.01953125 t-0.0097656 0.0097656 q-0.107421875 0.146484375 -0.33203125 0.146484375 q-0.263671875 0.01953125 -0.400390625 -0.166015625 q-0.146484375 -0.185546875 -0.2685546875 -0.400390625 t-0.26855 -0.41992 q-0.17578125 -0.234375 -0.3857421875 -0.5029296875 t-0.46387 -0.57129 q-0.09765625 -0.107421875 -0.2734375 -0.390625 l-0.3418 -0.54688 q-0.126953125 -0.1953125 -0.25390625 -0.3955078125 t-0.26367 -0.38574 q-0.05859375 -0.068359375 -0.126953125 -0.1513671875 t-0.14648 -0.1416 t-0.17578 -0.087891 t-0.19531 0 q-0.263671875 0.078125 -0.244140625 0.537109375 q0.009765625 0.33203125 0.0146484375 0.625 t0.024414 0.54688 q0.01953125 0.205078125 -0.0048828125 0.41015625 t-0.024414 0.40039 l0 0.76172 q0 0.244140625 -0.0146484375 0.439453125 t-0.03418 0.35156 z M70.087865625 18.359375 l0.029297 0.029297 q0.107421875 0.126953125 0.2001953125 0.283203125 t0.1709 0.35156 q0.05859375 0.13671875 0.1318359375 0.2587890625 t0.12207 0.25879 q0.078125 0.21484375 0.1171875 0.390625 t0.048828 0.33203 t0.0048828 0.33691 t-0.03418 0.40527 q-0.01953125 0.1953125 -0.01953125 0.3857421875 t-0.039063 0.38574 q-0.048828125 0.25390625 -0.1513671875 0.5029296875 t-0.23926 0.47363 q-0.244140625 0.390625 -0.68359375 0.712890625 l-0.078125 0.039063 q-0.107421875 0.078125 -0.185546875 0.087890625 q-0.107421875 0.048828125 -0.205078125 0.0830078125 t-0.18555 0.053711 q-0.5078125 0.1171875 -1.044921875 0.1025390625 t-1.0449 -0.0048828 q-0.185546875 0 -0.44921875 0.0048828125 t-0.41992 -0.092773 q-0.13671875 -0.068359375 -0.17578125 -0.263671875 q-0.009765625 -0.0390625 -0.009765625 -0.166015625 q0 -0.46875 0.009765625 -0.9326171875 t0.029297 -0.93262 q0.01953125 -0.234375 -0.009765625 -0.4833984375 t-0.029297 -0.49316 l0 -1.0156 l0 -0.82031 q0 -0.5859375 0.146484375 -0.76171875 q0.15625 -0.166015625 0.478515625 -0.15625 q0.166015625 0.009765625 0.3076171875 0.0048828125 t0.24902 -0.0048828 q0.37109375 -0.009765625 0.7568359375 0.009765625 t0.7959 0.039063 q0.80078125 0.048828125 1.40625 0.5859375 l0 0.0097656 z M68.808565625 18.388675 l-0.0097656 0 q-0.13671875 -0.01953125 -0.3369140625 -0.01953125 t-0.46387 0.019531 q-0.478515625 0.029296875 -0.7421875 -0.009765625 q-0.4296875 -0.068359375 -0.52734375 0 q-0.146484375 0.107421875 -0.146484375 0.419921875 t0.0097656 0.61523 t-0.0097656 0.5957 q-0.048828125 0.732421875 -0.0341796875 1.450195313 t0.014648 1.4307 q0 0.166015625 0.1171875 0.263671875 q0.1171875 0.107421875 0.458984375 0.05859375 q0.009765625 0 0.0244140625 -0.0048828125 t0.024414 -0.0048828 q0.1953125 -0.009765625 0.3662109375 -0.0048828125 t0.32715 0.014648 q0.5859375 0.0390625 1.123046875 -0.05859375 q0.546875 -0.1171875 0.849609375 -0.712890625 q0.13671875 -0.263671875 0.2392578125 -0.5078125 t0.16113 -0.49316 t0.073242 -0.5127 t-0.014648 -0.57617 q-0.05859375 -0.60546875 -0.390625 -1.201171875 q-0.166015625 -0.283203125 -0.4443359375 -0.46875 t-0.65918 -0.2832 z  M77.792966875 21.396475 q0.009765625 0.244140625 0 0.48828125 t0 0.47852 q0.009765625 0.78125 0 1.171875 q0 0.17578125 -0.146484375 0.263671875 q-0.15625 0.078125 -0.2734375 0.009765625 q-0.1171875 -0.0390625 -0.13671875 -0.224609375 q-0.01953125 -0.3125 -0.029296875 -0.625 t-0.0097656 -0.63477 q0.009765625 -0.390625 0.0146484375 -0.78125 t0.0048828 -0.80078 q0 -0.234375 0.0048828125 -0.4736328125 t-0.0048828 -0.47363 q0 -0.2734375 -0.0048828125 -0.5712890625 t0.014648 -0.62988 q0.009765625 -0.05859375 0.009765625 -0.146484375 l0 -0.21484 q0 -0.205078125 0.009765625 -0.234375 q0.009765625 -0.087890625 0.166015625 -0.1953125 q0.126953125 -0.078125 0.517578125 -0.09765625 q0.1953125 -0.009765625 0.3369140625 -0.0146484375 t0.23926 -0.0048828 q0.263671875 -0.009765625 0.5419921875 0.009765625 t0.56152 0.029297 q0.15625 0.009765625 0.3466796875 0.0244140625 t0.41504 0.053711 q0.44921875 0.05859375 0.703125 0.263671875 l0.0097656 0 q0.33203125 0.283203125 0.5029296875 0.615234375 t0.15137 0.74219 q-0.009765625 0.283203125 -0.13671875 0.4931640625 t-0.35156 0.36621 q-0.419921875 0.29296875 -0.91796875 0.400390625 q0.0390625 -0.01953125 -0.13671875 0.029296875 q-0.29296875 0.0390625 -0.5908203125 0.0244140625 t-0.59082 0.024414 q-0.09765625 0.009765625 -0.2294921875 0.0146484375 t-0.31738 -0.0048828 q-0.341796875 -0.01953125 -0.498046875 0.09765625 q-0.1953125 0.146484375 -0.17578125 0.52734375 z M79.414096875 20.156275 q0.380859375 0 0.7421875 -0.0390625 t0.70313 -0.29297 q0.361328125 -0.2734375 0.29296875 -0.64453125 q-0.078125 -0.37109375 -0.41015625 -0.60546875 q-0.078125 -0.05859375 -0.1806640625 -0.1025390625 t-0.20996 -0.083008 q-0.498046875 -0.107421875 -0.927734375 -0.048828125 q-0.21484375 0.029296875 -0.439453125 0.0439453125 t-0.45898 0.0048828 q-0.1171875 0 -0.205078125 -0.0048828125 t-0.13672 -0.014648 q-0.05859375 -0.01953125 -0.107421875 0 q-0.244140625 0.05859375 -0.263671875 0.4296875 q-0.009765625 0.078125 -0.0146484375 0.205078125 t-0.0048828 0.29297 q0.009765625 0.048828125 0.009765625 0.1220703125 l0 0.1709 q0.01953125 0.341796875 0.21484375 0.498046875 q0.185546875 0.166015625 0.64453125 0.146484375 q0.166015625 -0.009765625 0.3271484375 -0.029296875 t0.33691 -0.048828 l0.087891 0 z M83.984375 23.251955 q-0.009765625 -0.595703125 -0.0048828125 -1.19140625 t0.0048828 -1.1914 l0 -0.3418 q0 -0.263671875 -0.0146484375 -0.5322265625 t0.0048828 -0.53223 q0.009765625 -0.29296875 0.009765625 -0.5810546875 t0.0097656 -0.58105 q0 -0.3515625 0.166015625 -0.48828125 q0.126953125 -0.09765625 0.44921875 -0.09765625 q0.166015625 -0.009765625 0.2880859375 -0.0146484375 t0.20996 -0.0048828 q0.380859375 -0.009765625 0.76171875 0.0048828125 t0.76172 0.0048828 q0.205078125 -0.009765625 0.41015625 -0.0146484375 t0.40039 0.014648 l0.49805 0.029297 q0.087890625 0.009765625 0.1513671875 0.009765625 t0.1123 0.019531 q0.205078125 0.107421875 0.1953125 0.302734375 q-0.009765625 0.087890625 -0.068359375 0.1416015625 t-0.13184 0.083008 t-0.15137 0.039063 t-0.13672 0.0097656 q-0.595703125 0 -1.181640625 -0.029296875 q-0.05859375 -0.009765625 -0.146484375 -0.009765625 l-0.19531 0 l-0.56641 0 q-0.224609375 0 -0.400390625 0.0048828125 t-0.29297 0.0048828 q-0.166015625 0.009765625 -0.2734375 0.0439453125 t-0.15625 0.1123 q-0.078125 0.1171875 -0.05859375 0.29296875 l0 0.13672 t-0.0097656 0.10742 q-0.01953125 0.1171875 -0.029296875 0.2490234375 t0 0.28809 q0 0.2734375 0.21484375 0.458984375 q0.17578125 0.15625 0.634765625 0.126953125 q0.205078125 -0.009765625 0.4052734375 -0.0341796875 t0.40527 -0.014648 q0.087890625 0 0.2294921875 0.0048828125 t0.33691 -0.0048828 q0.390625 -0.009765625 0.52734375 0.13671875 q0.048828125 0.068359375 0.0390625 0.224609375 q-0.029296875 0.17578125 -0.2734375 0.21484375 q-0.224609375 0.0390625 -0.361328125 0.0390625 q-0.17578125 0.009765625 -0.3466796875 0.0048828125 t-0.34668 0.0048828 q-0.21484375 0.01953125 -0.439453125 0.009765625 t-0.46875 -0.029297 q-0.029296875 0 -0.068359375 -0.0048828125 t-0.068359 -0.0048828 l-0.0097656 0 q-0.107421875 -0.01953125 -0.21484375 0.048828125 q-0.17578125 0.107421875 -0.1953125 0.37109375 q-0.01953125 0.25390625 0 0.439453125 q0.009765625 0.107421875 0.0146484375 0.1953125 t-0.0048828 0.15625 q-0.01953125 0.146484375 -0.0341796875 0.2880859375 t-0.03418 0.28809 q-0.029296875 0.37109375 0.09765625 0.556640625 q0.166015625 0.224609375 0.576171875 0.224609375 q0.322265625 0 0.654296875 -0.0146484375 t0.66406 -0.03418 q0.302734375 -0.009765625 0.6201171875 0.01953125 t0.62988 0.029297 q0.1171875 0 0.3125 -0.0048828125 t0.30273 0.053711 q0.09765625 0.05859375 0.107421875 0.17578125 q0.107421875 0.3515625 -0.302734375 0.37109375 q-0.64453125 0.029296875 -1.264648438 0.01953125 t-1.2451 0 q-0.0390625 0 -0.0732421875 0.0048828125 t-0.063477 0.0048828 l-0.38574 0 t-0.26855 -0.0097656 q-0.068359375 0 -0.1611328125 -0.0048828125 t-0.20996 -0.014648 q-0.09765625 -0.009765625 -0.1611328125 -0.01953125 t-0.092773 -0.019531 q-0.29296875 -0.087890625 -0.29296875 -0.546875 z M94.570325 18.085975 q0.205078125 0.205078125 0.3271484375 0.44921875 l0.24902 0.49805 q0.13671875 0.283203125 0.0830078125 0.5712890625 t-0.31738 0.56152 q-0.205078125 0.21484375 -0.68359375 0.341796875 q-0.17578125 0.048828125 -0.3759765625 0.1025390625 t-0.27832 0.22949 q-0.05859375 0.166015625 0.029296875 0.341796875 q0.09765625 0.185546875 0.15625 0.302734375 t0.097656 0.17578 q0.048828125 0.09765625 0.126953125 0.2197265625 t0.18555 0.27832 q0.224609375 0.3125 0.4736328125 0.5859375 t0.50293 0.52734 l0.048828 0.048828 q0.21484375 0.21484375 0.009765625 0.419921875 q-0.224609375 0.224609375 -0.4296875 0.009765625 l-0.29297 -0.29297 t-0.23438 -0.25391 q-0.234375 -0.29296875 -0.439453125 -0.615234375 q-0.146484375 -0.21484375 -0.2978515625 -0.4150390625 t-0.28809 -0.43457 q-0.390625 -0.703125 -0.966796875 -0.927734375 q-0.615234375 -0.224609375 -0.8984375 0.17578125 q-0.087890625 0.13671875 -0.087890625 0.302734375 l0 2.1191 l0 0.12695 q0 0.29296875 -0.302734375 0.302734375 q-0.302734375 -0.009765625 -0.302734375 -0.37109375 q0 -0.224609375 0.0146484375 -0.4638671875 t0.024414 -0.5127 q0.009765625 -0.185546875 -0.0048828125 -0.380859375 t-0.014648 -0.38086 t0.0097656 -0.37109 t0.0097656 -0.37109 q0.009765625 -0.439453125 -0.029296875 -0.908203125 q0 -0.322265625 0.0146484375 -0.654296875 t0.0048828 -0.67383 q-0.009765625 -0.17578125 -0.009765625 -0.3955078125 t0.058594 -0.39551 q0.17578125 -0.234375 0.830078125 -0.234375 l0.30273 0 q0.3515625 0 0.7080078125 0.029296875 t0.70801 0.0097656 q0.810546875 -0.0390625 1.279296875 0.322265625 z M91.826125 20.195275 q0.37109375 0.009765625 0.654296875 0.009765625 t0.47852 -0.019531 q0.185546875 -0.01953125 0.4150390625 -0.048828125 t0.50293 -0.078125 q0.556640625 -0.1171875 0.72265625 -0.517578125 q0.068359375 -0.146484375 0.048828125 -0.322265625 t-0.1123 -0.32227 t-0.23438 -0.24902 t-0.30762 -0.17578 t-0.32227 -0.10254 q-0.41015625 -0.078125 -0.8154296875 -0.0634765625 t-0.81543 -0.0048828 q-0.078125 0 -0.1513671875 -0.0048828125 t-0.15137 -0.0048828 q-0.205078125 -0.009765625 -0.3125 0.107421875 q-0.087890625 0.09765625 -0.068359375 0.2734375 q0.009765625 0.048828125 0.009765625 0.205078125 q-0.009765625 0.146484375 -0.0341796875 0.283203125 t-0.03418 0.27344 q-0.05859375 0.380859375 0.087890625 0.56640625 q0.126953125 0.17578125 0.439453125 0.1953125 z M102.226565625 17.919875 q0.13671875 0.390625 -0.3125 0.419921875 q-0.5859375 0.0390625 -1.181640625 0.0146484375 t-1.1816 0.014648 q-0.234375 0.01953125 -0.546875 -0.029296875 t-0.46875 0.12695 q-0.126953125 0.126953125 -0.107421875 0.322265625 q0.009765625 0.009765625 0.009765625 0.068359375 q0 0.0390625 -0.0048828125 0.166015625 t-0.014648 0.3418 q-0.01953125 0.37109375 0.1171875 0.52734375 q0.146484375 0.17578125 0.400390625 0.17578125 q0.15625 0.009765625 0.3759765625 0.0146484375 t0.5127 0.024414 q0.0390625 0.009765625 0.15625 0 t0.3125 -0.019531 q0.107421875 -0.009765625 0.2880859375 -0.01953125 t0.27832 0.048828 q0.107421875 0.078125 0.107421875 0.25390625 q0.009765625 0.126953125 -0.048828125 0.185546875 q-0.087890625 0.09765625 -0.361328125 0.09765625 q-0.13671875 0 -0.2685546875 -0.009765625 t-0.25879 -0.019531 q-0.302734375 -0.009765625 -0.60546875 0 q-0.13671875 0.01953125 -0.2734375 0.0244140625 t-0.26367 0.0048828 q-0.3125 0 -0.41015625 0.1171875 q-0.068359375 0.09765625 -0.068359375 0.4296875 q0 0.439453125 0.0146484375 0.8642578125 t0.03418 0.84473 q0.009765625 0.078125 0.0048828125 0.1904296875 t-0.014648 0.25879 q-0.01953125 0.29296875 -0.126953125 0.390625 q-0.087890625 0.087890625 -0.1806640625 0.0927734375 t-0.16602 -0.039063 t-0.12207 -0.13184 t-0.058594 -0.19531 q-0.01953125 -0.13671875 -0.0146484375 -0.3125 t0.024414 -0.38086 q0.009765625 -0.15625 0.0146484375 -0.322265625 t0.0048828 -0.33203 q0.009765625 -0.1953125 0.0146484375 -0.3466796875 t0.024414 -0.25879 q0.01953125 -0.25390625 -0.009765625 -0.517578125 t-0.029297 -0.52734 l0 -1.084 q0 -0.302734375 -0.0146484375 -0.60546875 t-0.014648 -0.61523 l0 -0.029297 q0.05859375 -0.25390625 0.283203125 -0.361328125 q0.146484375 -0.068359375 0.44921875 -0.068359375 q0.146484375 0 0.302734375 0.0048828125 t0.32227 0.0048828 q0.64453125 0 1.279296875 -0.0146484375 t1.2793 0.0048828 q0.09765625 0.009765625 0.185546875 0.0146484375 t0.17578 0.024414 q0.087890625 0.048828125 0.15625 0.166015625 z M106.455059375 23.818355 q-0.1953125 -0.05859375 -0.3955078125 -0.1513671875 t-0.39063 -0.21484 t-0.35645 -0.27344 t-0.2832 -0.32715 q-0.15625 -0.244140625 -0.224609375 -0.5029296875 t-0.19531 -0.53223 q-0.09765625 -0.21484375 -0.107421875 -0.46875 q-0.009765625 -0.1171875 -0.0244140625 -0.2392578125 t-0.014648 -0.23926 q-0.009765625 -0.1171875 -0.0146484375 -0.205078125 t-0.0048828 -0.14648 q0 -0.185546875 0.0244140625 -0.3857421875 t0.073242 -0.41504 q0.009765625 -0.068359375 0.05859375 -0.17578125 q0.09765625 -0.29296875 0.2490234375 -0.5517578125 t0.34668 -0.4834 q0.380859375 -0.4296875 1.064453125 -0.76171875 q0.3125 -0.13671875 0.654296875 -0.126953125 q0.21484375 0.01953125 0.4296875 0.05859375 q0.17578125 0.029296875 0.3076171875 0.0439453125 t0.22949 0.03418 q0.751953125 0.087890625 1.328125 0.6640625 q0.126953125 0.126953125 0.2392578125 0.2783203125 t0.21973 0.32715 l0.048828 0.078125 q0.009765625 0.029296875 0.01953125 0.048828125 l0.019531 0.039063 q0.166015625 0.390625 0.302734375 0.9765625 q0.126953125 0.546875 0.0390625 1.005859375 q-0.05859375 0.263671875 -0.146484375 0.5078125 t-0.15625 0.48828 q-0.380859375 1.30859375 -1.71875 1.650390625 l-0.078125 0.019531 q-0.078125 0.01953125 -0.1953125 0.0390625 t-0.27344 0.039063 q-0.25390625 0.029296875 -0.5224609375 0.009765625 t-0.55176 -0.10742 z M107.441359375 18.232375 q-0.52734375 0 -0.9521484375 0.126953125 t-0.7666 0.46875 q-0.46875 0.46875 -0.595703125 1.040039063 t0.0097656 1.2744 l0.087891 0.47852 q0.01953125 0.13671875 0.0390625 0.2197265625 t0.029297 0.10254 q0.05859375 0.21484375 0.234375 0.41015625 t0.32227 0.3418 q0.078125 0.087890625 0.15625 0.1708984375 t0.16602 0.15137 q0.146484375 0.126953125 0.48828125 0.234375 l0.0097656 0 q0.185546875 0.048828125 0.4150390625 0.0341796875 t0.5127 -0.083008 q0.13671875 -0.0390625 0.2783203125 -0.0537109375 t0.28809 -0.053711 q0.361328125 -0.087890625 0.60546875 -0.390625 l0.0097656 0 l0 -0.0097656 q0.15625 -0.185546875 0.263671875 -0.46875 q0.09765625 -0.283203125 0.146484375 -0.361328125 q0.48828125 -0.95703125 0.146484375 -2.0703125 l-0.0097656 -0.0097656 q-0.0390625 -0.107421875 -0.078125 -0.205078125 t-0.10742 -0.19531 q-0.380859375 -0.576171875 -0.908203125 -0.830078125 q-0.01953125 -0.009765625 -0.087890625 -0.048828125 t-0.19531 -0.11719 q-0.17578125 -0.107421875 -0.498046875 -0.15625 l-0.0097656 0 z M116.58204375 18.085975 q0.205078125 0.205078125 0.3271484375 0.44921875 l0.24902 0.49805 q0.13671875 0.283203125 0.0830078125 0.5712890625 t-0.31738 0.56152 q-0.205078125 0.21484375 -0.68359375 0.341796875 q-0.17578125 0.048828125 -0.3759765625 0.1025390625 t-0.27832 0.22949 q-0.05859375 0.166015625 0.029296875 0.341796875 q0.09765625 0.185546875 0.15625 0.302734375 t0.097656 0.17578 q0.048828125 0.09765625 0.126953125 0.2197265625 t0.18555 0.27832 q0.224609375 0.3125 0.4736328125 0.5859375 t0.50293 0.52734 l0.048828 0.048828 q0.21484375 0.21484375 0.009765625 0.419921875 q-0.224609375 0.224609375 -0.4296875 0.009765625 l-0.29297 -0.29297 t-0.23438 -0.25391 q-0.234375 -0.29296875 -0.439453125 -0.615234375 q-0.146484375 -0.21484375 -0.2978515625 -0.4150390625 t-0.28809 -0.43457 q-0.390625 -0.703125 -0.966796875 -0.927734375 q-0.615234375 -0.224609375 -0.8984375 0.17578125 q-0.087890625 0.13671875 -0.087890625 0.302734375 l0 2.1191 l0 0.12695 q0 0.29296875 -0.302734375 0.302734375 q-0.302734375 -0.009765625 -0.302734375 -0.37109375 q0 -0.224609375 0.0146484375 -0.4638671875 t0.024414 -0.5127 q0.009765625 -0.185546875 -0.0048828125 -0.380859375 t-0.014648 -0.38086 t0.0097656 -0.37109 t0.0097656 -0.37109 q0.009765625 -0.439453125 -0.029296875 -0.908203125 q0 -0.322265625 0.0146484375 -0.654296875 t0.0048828 -0.67383 q-0.009765625 -0.17578125 -0.009765625 -0.3955078125 t0.058594 -0.39551 q0.17578125 -0.234375 0.830078125 -0.234375 l0.30273 0 q0.3515625 0 0.7080078125 0.029296875 t0.70801 0.0097656 q0.810546875 -0.0390625 1.279296875 0.322265625 z M113.83784375 20.195275 q0.37109375 0.009765625 0.654296875 0.009765625 t0.47852 -0.019531 q0.185546875 -0.01953125 0.4150390625 -0.048828125 t0.50293 -0.078125 q0.556640625 -0.1171875 0.72265625 -0.517578125 q0.068359375 -0.146484375 0.048828125 -0.322265625 t-0.1123 -0.32227 t-0.23438 -0.24902 t-0.30762 -0.17578 t-0.32227 -0.10254 q-0.41015625 -0.078125 -0.8154296875 -0.0634765625 t-0.81543 -0.0048828 q-0.078125 0 -0.1513671875 -0.0048828125 t-0.15137 -0.0048828 q-0.205078125 -0.009765625 -0.3125 0.107421875 q-0.087890625 0.09765625 -0.068359375 0.2734375 q0.009765625 0.048828125 0.009765625 0.205078125 q-0.009765625 0.146484375 -0.0341796875 0.283203125 t-0.03418 0.27344 q-0.05859375 0.380859375 0.087890625 0.56640625 q0.126953125 0.17578125 0.439453125 0.1953125 z M124.931684375 17.929675 q0.09765625 -0.029296875 0.322265625 0.029296875 q0.224609375 0.048828125 0.2734375 0.13671875 q0 0.009765625 0.009765625 0.01953125 q0.029296875 0.283203125 0.029296875 0.83984375 l0 0.73242 q0.009765625 0.29296875 0.01953125 0.56640625 t-0.0097656 0.55664 t-0.039063 0.55664 t0 0.54688 q0.009765625 0.234375 0.029296875 0.4638671875 t0 0.46387 l-0.029297 0.44922 q-0.01953125 0.33203125 -0.068359375 0.41015625 q-0.107421875 0.146484375 -0.244140625 0.146484375 q-0.322265625 -0.01953125 -0.33203125 -0.458984375 q-0.029296875 -0.625 0.0048828125 -1.25 t-0.014648 -1.2695 l-0.029297 -0.42969 q-0.01953125 -0.3125 -0.263671875 -0.341796875 q-0.09765625 -0.009765625 -0.166015625 0.029296875 t-0.11719 0.10742 t-0.078125 0.15137 t-0.058594 0.15137 q-0.078125 0.1953125 -0.1416015625 0.3515625 t-0.1123 0.27344 q-0.087890625 0.205078125 -0.21484375 0.4150390625 t-0.23438 0.40527 q-0.107421875 0.21484375 -0.2099609375 0.4052734375 t-0.2002 0.38574 q-0.068359375 0.1171875 -0.361328125 0.107421875 q-0.205078125 0 -0.302734375 -0.1171875 q-0.078125 -0.087890625 -0.1611328125 -0.2490234375 t-0.19043 -0.40527 q-0.078125 -0.166015625 -0.1416015625 -0.2880859375 t-0.1123 -0.2002 q-0.048828125 -0.068359375 -0.1171875 -0.21484375 t-0.17578 -0.37109 l-0.26367 -0.55664 q-0.048828125 -0.09765625 -0.0830078125 -0.146484375 t-0.043945 -0.068359 q-0.146484375 -0.185546875 -0.33203125 -0.146484375 q-0.244140625 0.0390625 -0.244140625 0.439453125 q0 0.625 0.009765625 1.176757813 t0.029297 1.0498 l0 0.19043 t-0.0097656 0.29785 q-0.01953125 0.3515625 -0.078125 0.439453125 q-0.09765625 0.146484375 -0.29296875 0.126953125 q-0.263671875 -0.009765625 -0.263671875 -0.380859375 q0 -0.439453125 -0.0146484375 -0.87890625 t-0.024414 -0.9082 q-0.009765625 -0.224609375 -0.0048828125 -0.4052734375 t0.024414 -0.30762 q0.029296875 -0.244140625 0.0341796875 -0.4296875 t-0.0048828 -0.3125 q-0.009765625 -0.15625 -0.029296875 -0.3369140625 t-0.048828 -0.38574 q-0.029296875 -0.283203125 0.009765625 -0.68359375 q0.0390625 -0.419921875 0.1171875 -0.68359375 q0.029296875 -0.1171875 0.05859375 -0.166015625 q0.2734375 -0.29296875 0.537109375 0.05859375 q0.107421875 0.146484375 0.205078125 0.302734375 t0.20508 0.32227 q0.15625 0.224609375 0.2734375 0.4931640625 t0.23438 0.52246 t0.20996 0.44434 t0.1709 0.30762 l0.039063 0.058594 q0.107421875 0.166015625 0.185546875 0.3369140625 t0.15625 0.33691 q0.21484375 0.458984375 0.439453125 0.46875 q0.224609375 0 0.322265625 -0.1953125 q0.048828125 -0.107421875 0.0927734375 -0.205078125 t0.073242 -0.18555 q0.068359375 -0.166015625 0.1611328125 -0.3466796875 t0.2002 -0.36621 q0.205078125 -0.3515625 0.419921875 -0.693359375 t0.39063 -0.72266 q0.048828125 -0.1171875 0.126953125 -0.25390625 t0.16602 -0.27344 l0.18555 -0.29297 q0.009765625 -0.01953125 0.0341796875 -0.05859375 t0.063477 -0.087891 z M133.808584375 23.515625 q0 0.244140625 -0.205078125 0.3125 q-0.17578125 0.078125 -0.3125 -0.1171875 q-0.068359375 -0.09765625 -0.1123046875 -0.17578125 t-0.073242 -0.14648 q-0.13671875 -0.29296875 -0.244140625 -0.5126953125 t-0.21484 -0.35645 q-0.234375 -0.322265625 -0.517578125 -0.41015625 q-0.244140625 -0.078125 -0.78125 -0.01953125 q-0.3125 0.0390625 -0.5908203125 0.048828125 t-0.53223 -0.0097656 q-0.56640625 -0.0390625 -0.83984375 0.361328125 l-0.019531 0.029297 l-0.0097656 0.019531 q-0.09765625 0.1953125 -0.1611328125 0.3857421875 t-0.15137 0.36621 l-0.20508 0.32227 q-0.13671875 0.205078125 -0.283203125 0.224609375 q-0.068359375 0.029296875 -0.1953125 -0.078125 q-0.05859375 -0.05859375 -0.0732421875 -0.1416015625 t0 -0.1709 t0.048828 -0.18066 t0.063477 -0.16113 l0.23438 -0.48828 q0.341796875 -0.703125 0.6396484375 -1.42578125 t0.62988 -1.4551 q0.05859375 -0.126953125 0.1025390625 -0.2392578125 t0.092773 -0.21973 q0.107421875 -0.263671875 0.21484375 -0.5322265625 t0.24414 -0.53223 l0.14648 -0.22461 q0.107421875 -0.17578125 0.205078125 -0.185546875 q0.09765625 -0.01953125 0.25390625 0.166015625 q0.166015625 0.1953125 0.3173828125 0.458984375 t0.25879 0.49805 q0.341796875 0.72265625 0.6396484375 1.450195313 t0.63965 1.4307 q0.107421875 0.21484375 0.2099609375 0.4345703125 t0.21973 0.4248 q0.05859375 0.146484375 0.1220703125 0.283203125 t0.12207 0.27344 q0.048828125 0.107421875 0.078125 0.17578125 t0.039063 0.11719 z M131.874984375 20.781275 q-0.09765625 -0.234375 -0.1904296875 -0.4833984375 t-0.21973 -0.4834 q-0.234375 -0.44921875 -0.517578125 -0.4296875 q-0.107421875 0 -0.1904296875 0.05859375 t-0.1416 0.1416 t-0.10742 0.18066 t-0.078125 0.18555 q-0.107421875 0.29296875 -0.205078125 0.60546875 t-0.18555 0.60547 q-0.068359375 0.21484375 0.01953125 0.322265625 q0.05859375 0.09765625 0.302734375 0.1171875 q0.21484375 0.009765625 0.380859375 0.0146484375 t0.27344 -0.0048828 q0.21484375 0 0.56640625 -0.05859375 q0.361328125 -0.05859375 0.4296875 -0.322265625 q0.029296875 -0.15625 -0.0390625 -0.263671875 q-0.01953125 -0.0390625 -0.0537109375 -0.0927734375 t-0.043945 -0.092773 z M136.796874375 23.632815 q-0.0390625 0.17578125 -0.302734375 0.205078125 q-0.2734375 -0.009765625 -0.2734375 -0.302734375 q0 -0.76171875 -0.0341796875 -1.538085938 t0.043945 -1.5381 l0 -0.0097656 q0 -0.224609375 0.0048828125 -0.439453125 t-0.014648 -0.41992 l-0.078125 -0.74219 q-0.029296875 -0.3125 0.09765625 -0.673828125 q0.09765625 -0.25390625 0.263671875 -0.302734375 q0.13671875 -0.029296875 0.283203125 0.13671875 q0.13671875 0.146484375 0.205078125 0.25390625 q0.126953125 0.185546875 0.2587890625 0.33203125 t0.25879 0.27344 q0.107421875 0.126953125 0.2197265625 0.2197265625 t0.21973 0.20996 q0.09765625 0.09765625 0.21484375 0.2490234375 t0.25391 0.35645 l0.42969 0.66406 q0.048828125 0.068359375 0.1025390625 0.15625 t0.13184 0.20508 l0.0097656 0.0097656 q0.205078125 0.2734375 0.4296875 0.517578125 q0.107421875 0.1171875 0.21484375 0.2197265625 t0.22461 0.20996 q0.107421875 0.126953125 0.25390625 0.078125 q0.224609375 -0.05859375 0.21484375 -0.44921875 q0 -0.09765625 -0.0146484375 -0.205078125 t-0.014648 -0.21484 q-0.009765625 -0.078125 -0.01953125 -0.1513671875 t-0.0097656 -0.16113 q0 -0.0390625 -0.0048828125 -0.087890625 t-0.0048828 -0.10742 q0.0390625 -0.859375 -0.05859375 -1.6015625 q-0.009765625 -0.048828125 -0.009765625 -0.1611328125 t0.019531 -0.28809 q0.009765625 -0.21484375 0.05859375 -0.458984375 q0.029296875 -0.3515625 0.3125 -0.3515625 q0.3125 0 0.3125 0.37109375 q0.009765625 0.302734375 0.0244140625 0.6103515625 t0.014648 0.61035 q0.009765625 0.44921875 -0.01953125 0.8984375 t-0.0097656 0.89844 q0.01953125 0.302734375 0.0146484375 0.595703125 t-0.014648 0.58594 q0 0.166015625 0.0048828125 0.3271484375 t0.0048828 0.30762 l0 0.39063 q-0.009765625 0.05859375 -0.0146484375 0.1171875 t-0.0048828 0.10742 q-0.009765625 0.009765625 -0.009765625 0.01953125 t-0.0097656 0.0097656 q-0.107421875 0.146484375 -0.33203125 0.146484375 q-0.263671875 0.01953125 -0.400390625 -0.166015625 q-0.146484375 -0.185546875 -0.2685546875 -0.400390625 t-0.26855 -0.41992 q-0.17578125 -0.234375 -0.3857421875 -0.5029296875 t-0.46387 -0.57129 q-0.09765625 -0.107421875 -0.2734375 -0.390625 l-0.3418 -0.54688 q-0.126953125 -0.1953125 -0.25390625 -0.3955078125 t-0.26367 -0.38574 q-0.05859375 -0.068359375 -0.126953125 -0.1513671875 t-0.14648 -0.1416 t-0.17578 -0.087891 t-0.19531 0 q-0.263671875 0.078125 -0.244140625 0.537109375 q0.009765625 0.33203125 0.0146484375 0.625 t0.024414 0.54688 q0.01953125 0.205078125 -0.0048828125 0.41015625 t-0.024414 0.40039 l0 0.76172 q0 0.244140625 -0.0146484375 0.439453125 t-0.03418 0.35156 z M147.69526875 22.929675 q0.458984375 -0.263671875 0.537109375 0.17578125 q0.0390625 0.185546875 -0.1953125 0.361328125 q-0.107421875 0.078125 -0.2001953125 0.1318359375 t-0.1709 0.083008 q-0.224609375 0.09765625 -0.4052734375 0.1416015625 t-0.31738 0.063477 q-0.25390625 0.01953125 -0.537109375 0.01953125 t-0.5957 -0.048828 q-0.634765625 -0.09765625 -1.025390625 -0.439453125 q-0.361328125 -0.302734375 -0.595703125 -0.732421875 t-0.38086 -0.86914 l-0.019531 -0.058594 q-0.087890625 -0.283203125 -0.0634765625 -0.6298828125 t0.014648 -0.64941 q0 -0.234375 0.009765625 -0.4150390625 t0.048828 -0.30762 q0.068359375 -0.244140625 0.3125 -0.6640625 q0.263671875 -0.46875 0.595703125 -0.810546875 t0.89844 -0.45898 q0.146484375 -0.01953125 0.5078125 -0.1171875 q0.107421875 -0.029296875 0.2392578125 -0.048828125 t0.29785 -0.0097656 q0.126953125 0 0.2978515625 0.029296875 t0.39551 0.078125 q0.15625 0.048828125 0.478515625 0.205078125 q0.302734375 0.126953125 0.361328125 0.341796875 q0.01953125 0.078125 -0.01953125 0.166015625 q-0.087890625 0.146484375 -0.205078125 0.17578125 q-0.068359375 0.01953125 -0.1708984375 0 t-0.24902 -0.097656 q-0.1953125 -0.09765625 -0.361328125 -0.166015625 t-0.33691 -0.10254 t-0.35156 -0.024414 t-0.39551 0.068359 q-0.5078125 0.15625 -0.712890625 0.263671875 q-0.21484375 0.1171875 -0.5078125 0.556640625 q-0.234375 0.341796875 -0.3564453125 0.7177734375 t-0.1416 0.77148 t0.063477 0.78613 t0.25879 0.75195 l0 0.0097656 l0.0097656 0 q0.419921875 0.78125 1.201171875 0.9765625 q0.56640625 0.13671875 0.87890625 0.05859375 q0.087890625 -0.009765625 0.166015625 -0.029296875 t0.16602 -0.039063 q0.33203125 -0.068359375 0.576171875 -0.21484375 z M150.478515625 23.251955 q-0.009765625 -0.595703125 -0.0048828125 -1.19140625 t0.0048828 -1.1914 l0 -0.3418 q0 -0.263671875 -0.0146484375 -0.5322265625 t0.0048828 -0.53223 q0.009765625 -0.29296875 0.009765625 -0.5810546875 t0.0097656 -0.58105 q0 -0.3515625 0.166015625 -0.48828125 q0.126953125 -0.09765625 0.44921875 -0.09765625 q0.166015625 -0.009765625 0.2880859375 -0.0146484375 t0.20996 -0.0048828 q0.380859375 -0.009765625 0.76171875 0.0048828125 t0.76172 0.0048828 q0.205078125 -0.009765625 0.41015625 -0.0146484375 t0.40039 0.014648 l0.49805 0.029297 q0.087890625 0.009765625 0.1513671875 0.009765625 t0.1123 0.019531 q0.205078125 0.107421875 0.1953125 0.302734375 q-0.009765625 0.087890625 -0.068359375 0.1416015625 t-0.13184 0.083008 t-0.15137 0.039063 t-0.13672 0.0097656 q-0.595703125 0 -1.181640625 -0.029296875 q-0.05859375 -0.009765625 -0.146484375 -0.009765625 l-0.19531 0 l-0.56641 0 q-0.224609375 0 -0.400390625 0.0048828125 t-0.29297 0.0048828 q-0.166015625 0.009765625 -0.2734375 0.0439453125 t-0.15625 0.1123 q-0.078125 0.1171875 -0.05859375 0.29296875 l0 0.13672 t-0.0097656 0.10742 q-0.01953125 0.1171875 -0.029296875 0.2490234375 t0 0.28809 q0 0.2734375 0.21484375 0.458984375 q0.17578125 0.15625 0.634765625 0.126953125 q0.205078125 -0.009765625 0.4052734375 -0.0341796875 t0.40527 -0.014648 q0.087890625 0 0.2294921875 0.0048828125 t0.33691 -0.0048828 q0.390625 -0.009765625 0.52734375 0.13671875 q0.048828125 0.068359375 0.0390625 0.224609375 q-0.029296875 0.17578125 -0.2734375 0.21484375 q-0.224609375 0.0390625 -0.361328125 0.0390625 q-0.17578125 0.009765625 -0.3466796875 0.0048828125 t-0.34668 0.0048828 q-0.21484375 0.01953125 -0.439453125 0.009765625 t-0.46875 -0.029297 q-0.029296875 0 -0.068359375 -0.0048828125 t-0.068359 -0.0048828 l-0.0097656 0 q-0.107421875 -0.01953125 -0.21484375 0.048828125 q-0.17578125 0.107421875 -0.1953125 0.37109375 q-0.01953125 0.25390625 0 0.439453125 q0.009765625 0.107421875 0.0146484375 0.1953125 t-0.0048828 0.15625 q-0.01953125 0.146484375 -0.0341796875 0.2880859375 t-0.03418 0.28809 q-0.029296875 0.37109375 0.09765625 0.556640625 q0.166015625 0.224609375 0.576171875 0.224609375 q0.322265625 0 0.654296875 -0.0146484375 t0.66406 -0.03418 q0.302734375 -0.009765625 0.6201171875 0.01953125 t0.62988 0.029297 q0.1171875 0 0.3125 -0.0048828125 t0.30273 0.053711 q0.09765625 0.05859375 0.107421875 0.17578125 q0.107421875 0.3515625 -0.302734375 0.37109375 q-0.64453125 0.029296875 -1.264648438 0.01953125 t-1.2451 0 q-0.0390625 0 -0.0732421875 0.0048828125 t-0.063477 0.0048828 l-0.38574 0 t-0.26855 -0.0097656 q-0.068359375 0 -0.1611328125 -0.0048828125 t-0.20996 -0.014648 q-0.09765625 -0.009765625 -0.1611328125 -0.01953125 t-0.092773 -0.019531 q-0.29296875 -0.087890625 -0.29296875 -0.546875 z " style="fill: #1c6d91;"/></g><defs/><g id="SvgjsG1012" fill="#1c6d91" rel="mainfill" name="symbol" xmlns:name="symbol_mainfill" transform="translate(254.27300802863212, 225.38923853005753) scale(1.5487089528525764)"><g xmlns="http://www.w3.org/2000/svg" transform="translate(0,-952.36218)"><path style="font-size: medium; font-style: normal; font-variant: normal; font-weight: normal; font-stretch: normal; text-indent: 0; text-align: start; text-decoration: none; line-height: normal; letter-spacing: normal; word-spacing: normal; text-transform: none; direction: ltr; block-progression: tb; writing-mode: lr-tb; text-anchor: start; baseline-shift: baseline; opacity: 1; color: #fff; fill: #1c6d91; fill-opacity: 1; stroke: none; stroke-width: 4; marker: none; visibility: visible; display: inline; overflow: visible; enable-background: accumulate; font-family: Sans; -inkscape-font-specification: Sans;" d="M 27.8125 11 A 2.0002 2.0002 0 0 0 26 13 L 26 37 A 2.0002 2.0002 0 0 0 28 39 L 48 39 L 48 50 L 18 50 A 2.0002 2.0002 0 0 0 17.8125 50 A 2.0002 2.0002 0 0 0 16 52 L 16 65 L 8 65 A 2.0002 2.0002 0 0 0 7.8125 65 A 2.0002 2.0002 0 0 0 6 67 L 6 87 A 2.0002 2.0002 0 1 0 10 87 L 10 69 L 26 69 L 26 85 L 16 85 A 2.0002 2.0002 0 1 0 16 89 L 28 89 A 2.0002 2.0002 0 0 0 30 87 L 30 67 A 2.0002 2.0002 0 0 0 28 65 L 20 65 L 20 54 L 48 54 L 48 65 L 40 65 A 2.0002 2.0002 0 0 0 38 67 L 38 87 A 2.0002 2.0002 0 0 0 40 89 L 60 89 A 2.0002 2.0002 0 0 0 62 87 L 62 67 A 2.0002 2.0002 0 0 0 60.1875 65 A 2.0002 2.0002 0 0 0 60 65 L 52 65 L 52 54 L 80 54 L 80 65 L 72 65 A 2.0002 2.0002 0 0 0 70 67 L 70 87 A 2.0002 2.0002 0 0 0 72 89 L 92 89 A 2.0002 2.0002 0 0 0 94 87 L 94 67 A 2.0002 2.0002 0 0 0 92.1875 65 A 2.0002 2.0002 0 0 0 92 65 L 84 65 L 84 52 A 2.0002 2.0002 0 0 0 82 50 L 52 50 L 52 39 L 72 39 A 2.0002 2.0002 0 0 0 74 37 L 74 21 A 2.0002 2.0002 0 1 0 70 21 L 70 35 L 30 35 L 30 15 L 72 15 A 2.0002 2.0002 0 1 0 72 11 L 28 11 A 2.0002 2.0002 0 0 0 27.8125 11 z M 42 69 L 58 69 L 58 85 L 42 85 L 42 69 z M 74 69 L 90 69 L 90 85 L 74 85 L 74 69 z " transform="translate(0,952.36218)" fill="#1c6d91"/></g></g>
			</g>
		</svg>
	